<?xml version="1.0" standalone="no"?>
<svg viewBox="0 0 200 200" xmlns="http://www.w3.org/2000/svg">
  <path fill="#A7F0BA" d="M28.6,-45.4C41.1,-42.2,58.1,-42.8,69.5,-35.9C80.9,-28.9,86.6,-14.5,88.4,1C90.1,16.4,87.7,32.9,79.2,44.7C70.6,56.5,55.8,63.8,41.6,68.1C27.3,72.4,13.7,73.8,-0.5,74.7C-14.7,75.6,-29.4,76,-38.5,68.7C-47.5,61.4,-50.9,46.4,-50.1,33.6C-49.2,20.9,-44.1,10.5,-46.9,-1.6C-49.6,-13.6,-60.3,-27.3,-59.6,-37.3C-58.9,-47.3,-46.8,-53.7,-35,-57.3C-23.1,-60.9,-11.6,-61.6,-1.8,-58.6C8,-55.5,16,-48.6,28.6,-45.4Z" transform="translate(100 100)" />
</svg>
