<?xml version="1.0" encoding="utf-8"?>
<!-- Generator: Adobe Illustrator 16.0.4, SVG Export Plug-In . SVG Version: 6.00 Build 0)  -->
<!DOCTYPE svg PUBLIC "-//W3C//DTD SVG 1.1//EN" "http://www.w3.org/Graphics/SVG/1.1/DTD/svg11.dtd">
<svg version="1.1" id="Layer_3" xmlns="http://www.w3.org/2000/svg" xmlns:xlink="http://www.w3.org/1999/xlink" x="0px" y="0px"
	 width="113.386px" height="130.394px" viewBox="0 0 113.386 130.394" enable-background="new 0 0 113.386 130.394"
	 xml:space="preserve">
<path fill="#357A00" d="M101.398,102.697c-12.125,12.562-44.189,27-44.189,27s-31.62-12.887-45.241-27S1.447,20.688,1.447,20.688
	L57.209,4.697l54.712,15.992C111.922,20.688,113.523,90.135,101.398,102.697z"/>
<linearGradient id="SVGID_1_" gradientUnits="userSpaceOnUse" x1="90.0742" y1="9.3516" x2="-56.1717" y2="192.3947">
	<stop  offset="0" style="stop-color:#83BF15"/>
	<stop  offset="1" style="stop-color:#61AA0B"/>
</linearGradient>
<path fill="url(#SVGID_1_)" d="M101.398,98.697c-12.125,12.562-44.189,27-44.189,27s-31.62-12.887-45.241-27
	S1.447,16.688,1.447,16.688L57.209,0.697l54.712,15.992C111.922,16.688,113.523,86.135,101.398,98.697z"/>
<rect x="56.728" y="22.584" fill="#FFFFFF" width="2.598" height="68.155"/>
<rect x="47.652" y="54.679" fill="#FFFFFF" width="17.307" height="2.594"/>
<rect x="58.089" y="22.585" fill="#FFFFFF" width="6.868" height="2.464"/>
<rect x="58.089" y="88.146" fill="#FFFFFF" width="6.868" height="2.594"/>
<path fill="#FFFFFF" d="M42.815,26.431c0-1.206-0.977-2.181-2.181-2.181H16.687c-1.204,0-2.181,0.975-2.181,2.181v59.387
	c0,1.203,0.977,2.275,2.181,2.275h3.396h17.176h3.395c1.204,0,2.181-1.072,2.181-2.275L42.815,26.431z M17.867,28.442h21.589v3.704
	H17.867V28.442z M17.867,36.384h21.589v3.703H17.867V36.384z M17.867,48.029v-3.704h21.589v3.704H17.867z"/>
<path fill="#FFFFFF" d="M83.612,32.713c-0.102,0.283-0.368,0.489-0.684,0.489h-3.886c-0.315,0-0.582-0.206-0.684-0.489H65.197
	c-0.156,0-0.281,0.127-0.281,0.282c0,0,0.744,2.391,1.996,2.391h27.755c1.154,0,1.903-2.391,1.903-2.391
	c0-0.155-0.126-0.282-0.281-0.282H83.612z"/>
<path fill="#FFFFFF" d="M91.196,15.274H70.29c-0.822,0-1.489,0.671-1.489,1.499v14.629h9.56c0.101,0.283,0.367,0.489,0.683,0.489
	h3.886c0.314,0,0.582-0.206,0.684-0.489h9.073V16.772C92.686,15.945,92.019,15.274,91.196,15.274z M90.612,29.258H70.874v-11.84
	h19.738V29.258z"/>
<path fill="#FFFFFF" d="M83.612,63.4c-0.102,0.283-0.368,0.489-0.684,0.489h-3.886c-0.315,0-0.582-0.206-0.684-0.489H65.197
	c-0.156,0-0.281,0.127-0.281,0.282c0,0,0.744,2.391,1.996,2.391h27.755c1.154,0,1.903-2.391,1.903-2.391
	c0-0.155-0.126-0.282-0.281-0.282H83.612z"/>
<path fill="#FFFFFF" d="M91.196,45.961H70.29c-0.822,0-1.489,0.671-1.489,1.499v14.629h9.56c0.101,0.283,0.367,0.489,0.683,0.489
	h3.886c0.314,0,0.582-0.206,0.684-0.489h9.073V47.46C92.686,46.633,92.019,45.961,91.196,45.961z M90.612,59.945H70.874v-11.84
	h19.738V59.945z"/>
<path fill="#FFFFFF" d="M83.612,97.489c-0.102,0.283-0.368,0.489-0.684,0.489h-3.886c-0.315,0-0.582-0.206-0.684-0.489H65.197
	c-0.156,0-0.281,0.127-0.281,0.283c0,0,0.744,2.391,1.996,2.391h27.755c1.154,0,1.903-2.391,1.903-2.391
	c0-0.156-0.126-0.283-0.281-0.283H83.612z"/>
<path fill="#FFFFFF" d="M91.196,80.051H70.29c-0.822,0-1.489,0.671-1.489,1.499v14.629h9.56c0.101,0.283,0.367,0.489,0.683,0.489
	h3.886c0.314,0,0.582-0.206,0.684-0.489h9.073V81.55C92.686,80.722,92.019,80.051,91.196,80.051z M90.612,94.034H70.874v-11.84
	h19.738V94.034z"/>
</svg>
