<svg width="277" height="343" viewBox="0 0 277 343" fill="none" xmlns="http://www.w3.org/2000/svg">
<path opacity="0.2" d="M0 247.305L152.754 324.313L222.701 288.777L72.1926 211.488L0 247.305Z" fill="#65BC46"/>
<path d="M103.742 247.371L62.757 220.617L11.0815 244.821V248.39L142.999 315.34L142.775 311.434L103.742 247.371Z" fill="#379425"/>
<path d="M142.774 311.434L142.998 315.34L198.438 286.723V283.154L67.7495 219.631L142.774 311.434Z" fill="#8AE669"/>
<path d="M11.0815 244.82L142.775 311.434L198.438 283.154L67.7497 216.064L11.0815 244.82Z" fill="#65BC46"/>
<path d="M66.5409 219.743L18.4708 244.298L141.58 307.694L141.645 307.727L190.245 283.038L190.445 282.937L66.5984 219.777L66.5409 219.743ZM141.651 307.466L18.9979 244.308L66.5219 220.017L189.906 282.944L141.651 307.466Z" fill="#379425"/>
<path d="M115.224 259.243L124.494 264.014L132.687 259.856L123.401 255.085L115.224 259.243ZM124.496 263.747L120.992 261.942L115.748 259.246L123.396 255.352L132.136 259.856L124.496 263.747Z" fill="#3A73D6"/>
<path d="M19.0049 244.299L141.658 307.459L189.927 282.938L66.5424 220.011L19.0049 244.299Z" fill="white"/>
<path d="M82.283 242.287L90.6133 246.575L98.8071 242.417L90.4767 238.13L82.283 242.287ZM90.6024 246.318L86.3908 244.155L82.7964 242.304L90.4439 238.413L98.2526 242.432L90.6024 246.318Z" fill="#379425"/>
<path d="M106.697 254.855L115.486 259.378L123.68 255.22L114.891 250.694L106.697 254.855ZM115.489 259.111L112.375 257.508L107.221 254.864L114.869 250.973L123.136 255.227L115.489 259.111Z" fill="#379425"/>
<path d="M90.3496 246.44L98.8739 250.829L107.068 246.669L98.5434 242.283L90.3496 246.44ZM98.8766 250.56L90.874 246.44L98.5352 242.549L106.535 246.669L98.8766 250.56Z" fill="#379425"/>
<path d="M50.2151 242.672L58.9989 247.193L67.799 242.723L59.0153 238.202L50.2151 242.672ZM58.9989 246.926L50.7395 242.672L59.0125 238.469L67.2746 242.72L58.9989 246.926Z" fill="#379425"/>
<path d="M52.7051 235.224L61.5462 239.774L69.7864 235.587L60.9453 231.037L52.7051 235.224ZM61.5462 239.504L53.2295 235.224L60.9453 231.304L69.262 235.587L61.5462 239.504Z" fill="#379425"/>
<path d="M72.8811 237.45L82.5415 242.422L90.7353 238.264L81.0721 233.289L72.8811 237.45ZM82.5443 242.153L77.871 239.75L73.3945 237.45L81.0557 233.559L90.1918 238.262L82.5443 242.153Z" fill="#379425"/>
<path d="M63.9508 232.859L73.1443 237.591L81.338 233.433L72.1446 228.701L63.9508 232.859ZM73.1443 237.322L69.5936 235.493L64.478 232.849L72.1255 228.958L80.7972 233.421L73.1443 237.322Z" fill="#379425"/>
<path d="M58.7361 247.059L67.6427 251.644L76.4428 247.172L67.5362 242.588L58.7361 247.059ZM67.6427 251.385L59.2605 247.059L67.5335 242.853L75.9184 247.179L67.6427 251.385Z" fill="#379425"/>
<path d="M145.914 283.197L155.2 287.977L163.44 283.791L154.154 279.01L145.914 283.197ZM155.2 287.711L146.435 283.197L154.151 279.28L162.916 283.791L155.2 287.711Z" fill="#379425"/>
<path d="M134.792 286.213L144.477 291.198L153.277 286.727L143.586 281.736L134.792 286.213ZM144.477 290.929L135.319 286.213L143.592 282.01L152.752 286.725L144.477 290.929Z" fill="#379425"/>
<path d="M113.953 284.464L122.595 288.91L131.641 284.315L123.002 279.869L113.953 284.464ZM131.116 284.313L122.595 288.639L114.478 284.462L122.999 280.136L127.276 282.337L131.116 284.313Z" fill="#379425"/>
<path d="M124.235 263.879L133.568 268.686L141.761 264.525L132.429 259.719L124.235 263.879ZM133.57 268.416L124.759 263.881L132.407 259.99L141.218 264.525L133.57 268.416Z" fill="#379425"/>
<path d="M141.45 272.74L146.252 275.213L149.936 277.11L158.13 272.949L149.644 268.583L141.45 272.74ZM149.936 276.84L141.975 272.755L149.622 268.864L157.586 272.949L149.936 276.84Z" fill="#379425"/>
<path d="M157.789 281.167L167.256 286.041L175.45 281.881L165.983 277L157.789 281.167ZM167.256 285.772L158.336 281.167L165.997 277.276L174.939 281.878L167.256 285.772Z" fill="#379425"/>
<path d="M133.304 268.549L141.71 272.875L149.904 268.717L141.5 264.391L133.304 268.549ZM141.71 272.608L133.831 268.551L141.478 264.66L149.361 268.717L141.71 272.608Z" fill="#379425"/>
<path d="M149.672 276.975L158.062 281.301L166.256 277.143L157.866 272.817L149.672 276.975ZM158.062 281.024L154.217 279.044L150.196 276.975L157.857 273.084L165.723 277.133L158.062 281.024Z" fill="#379425"/>
<path d="M93.4604 264.932L101.408 269.017L110.209 264.547L102.261 260.462L93.4604 264.932ZM109.684 264.55L101.408 268.753L93.9848 264.934L102.261 260.728L104.265 261.762L109.684 264.55Z" fill="#379425"/>
<path d="M112.685 266.094L121.971 270.877L130.212 266.69L120.925 261.908L112.685 266.094ZM121.971 270.608L113.204 266.097L120.917 262.179L129.684 266.69L121.971 270.608Z" fill="#379425"/>
<path d="M104.069 261.66L112.949 266.227L121.189 262.04L112.309 257.474L104.069 261.66ZM112.949 265.96L104.594 261.66L112.309 257.743L120.662 262.043L112.949 265.96Z" fill="#379425"/>
<path d="M67.3854 251.507L75.7895 255.833L84.5923 251.365L76.1882 247.039L67.3854 251.507ZM75.7895 255.564L67.9098 251.509L76.1855 247.306L84.0461 251.365L75.7895 255.564Z" fill="#379425"/>
<path d="M95.243 257.116L104.335 261.795L112.576 257.608L103.483 252.929L95.243 257.116ZM104.335 261.526L102.331 260.495L95.7756 257.116L103.491 253.198L112.059 257.608L104.335 261.526Z" fill="#379425"/>
<path d="M61.2839 239.639L69.8273 244.037L78.0676 239.85L69.5242 235.452L61.2839 239.639ZM69.8273 243.768L67.6014 242.621L61.8084 239.639L69.5214 235.721L77.5431 239.848L69.8273 243.768Z" fill="#379425"/>
<path d="M129.427 274.711L138.339 279.299L146.579 275.112L137.667 270.524L129.427 274.711ZM138.339 279.037L129.951 274.711L137.667 270.791L146.054 275.117L138.339 279.037Z" fill="#379425"/>
<path d="M69.5714 243.9L78.3633 248.425L86.6036 244.239L77.8116 239.716L69.5714 243.9ZM78.3633 248.159L70.0903 243.914L77.8061 239.994L86.0736 244.251L78.3633 248.159Z" fill="#379425"/>
<path d="M78.0947 248.291L86.6627 252.701L94.9029 248.515L86.3349 244.104L78.0947 248.291ZM86.6627 252.432L78.6191 248.294L86.3322 244.374L94.3758 248.512L86.6627 252.432Z" fill="#379425"/>
<path d="M86.4019 252.566L95.5024 257.25L103.743 253.064L94.642 248.379L86.4019 252.566ZM95.5024 256.981L86.9262 252.566L94.6393 248.649L103.218 253.061L95.5024 256.981Z" fill="#379425"/>
<path d="M121.714 270.743L129.689 274.846L137.929 270.662L129.954 266.557L121.714 270.743ZM129.689 274.589L122.238 270.743L129.954 266.823L137.405 270.669L129.689 274.589Z" fill="#379425"/>
<path d="M105.203 279.965L114.216 284.604L123.265 280.009L114.252 275.368L105.203 279.965ZM114.216 284.335L105.728 279.965L114.249 275.639L122.738 280.009L114.216 284.335Z" fill="#379425"/>
<path d="M101.147 268.888L110.215 273.555L119.015 269.082L109.947 264.417L101.147 268.888ZM110.215 273.286L101.671 268.89L109.947 264.684L118.49 269.082L110.215 273.286Z" fill="#379425"/>
<path d="M95.5662 257.015L93.0043 255.698L84.2042 260.168L93.7226 265.066L102.523 260.596L95.5662 257.015ZM101.998 260.594L93.7226 264.8L84.7286 260.168L93.0043 255.965L101.998 260.594Z" fill="#379425"/>
<path d="M75.5226 255.69L84.4674 260.295L93.2675 255.825L84.3199 251.227L75.5226 255.69ZM84.4702 260.016L76.047 255.69L84.3199 251.487L92.7432 255.813L84.4702 260.016Z" fill="#379425"/>
<path d="M138.076 279.164L146.174 283.331L154.414 279.144L146.319 274.977L138.076 279.164ZM146.174 283.062L138.6 279.164L146.316 275.246L153.89 279.144L146.174 283.062Z" fill="#379425"/>
<path d="M109.951 273.421L118.549 277.845L127.349 273.375L118.751 268.948L109.951 273.421ZM118.549 277.576L110.475 273.421L118.751 269.217L126.825 273.372L118.549 277.576Z" fill="#379425"/>
<path d="M127.082 282.236L135.055 286.341L143.855 281.87L135.882 277.765L127.082 282.236ZM135.057 286.081L127.606 282.236L135.879 278.032L143.33 281.878L135.057 286.081Z" fill="#379425"/>
<path d="M118.288 277.71L127.342 282.37L136.145 277.9L127.088 273.235L118.288 277.71ZM127.345 282.103L118.813 277.712L127.088 273.507L135.618 277.897L127.345 282.103Z" fill="#379425"/>
<path d="M98.6128 250.695L106.957 254.989L115.151 250.829L106.804 246.534L98.6128 250.695ZM106.959 254.72L99.1372 250.695L106.798 246.799L114.618 250.824L106.959 254.72Z" fill="#379425"/>
<path d="M154.94 287.843L167.719 294.421L167.785 294.454L176.025 290.268L163.188 283.656L154.94 287.843ZM167.777 294.185L155.456 287.845L163.172 283.925L175.492 290.265L167.777 294.185Z" fill="#379425"/>
<path d="M167.005 285.896L175.762 290.402L183.955 286.242L175.199 281.736L167.005 285.896ZM175.762 290.133L167.53 285.896L175.191 282.005L183.42 286.242L175.762 290.133Z" fill="#379425"/>
<path d="M153.017 286.585L144.217 291.055L159.181 298.746L159.247 298.782L168.047 294.31L153.085 286.619L153.017 286.585ZM159.247 298.523L144.741 291.055L153.017 286.852L167.522 294.319L159.247 298.523Z" fill="#379425"/>
<path d="M181.656 278.453L174.928 281.87L183.682 286.377L190.453 282.937L181.713 278.486L181.656 278.453ZM183.685 286.107L175.453 281.87L181.656 278.719L189.926 282.937L183.685 286.107Z" fill="#379425"/>
<path d="M172.409 273.735L165.725 277.133L175.192 282.005L181.919 278.585L172.477 273.778L172.409 273.735ZM175.192 281.736L166.258 277.133L172.417 274.009L181.4 278.59L175.192 281.736Z" fill="#379425"/>
<path d="M155.983 265.357L149.374 268.721L157.86 273.088L164.508 269.709L156.041 265.383L155.983 265.357ZM157.86 272.807L149.898 268.721L155.983 265.631L163.98 269.716L157.86 272.807Z" fill="#379425"/>
<path d="M140.376 288.809L131.327 293.406L150.397 303.219L150.462 303.253L159.508 298.658L144.546 290.967L140.376 288.809ZM150.462 302.989L136.188 295.642L131.851 293.409L140.373 289.083L158.984 298.66L150.462 302.989Z" fill="#379425"/>
<path d="M43.4604 257.164L52.2497 261.689L61.2983 257.091L52.5064 252.566L43.4604 257.164ZM52.2497 261.42L43.9876 257.164L52.5064 252.837L60.7739 257.094L52.2497 261.42Z" fill="#379425"/>
<path d="M96.932 275.701L105.464 280.095L114.513 275.497L105.978 271.106L96.932 275.701ZM113.986 275.497L105.464 279.823L97.4565 275.701L105.978 271.375L110.149 273.521L113.986 275.497Z" fill="#379425"/>
<path d="M18.4801 244.299L26.8678 248.625L35.9083 244.032L27.496 239.706L18.4801 244.299ZM26.8678 248.349L19.0045 244.302L27.4933 239.976L35.3839 244.035L26.8678 248.349Z" fill="#379425"/>
<path d="M138.686 256.537L132.156 259.856L141.491 264.663L148.065 261.323L138.755 256.573L138.686 256.537ZM141.494 264.392L132.683 259.856L138.692 256.807L147.544 261.32L141.494 264.392Z" fill="#379425"/>
<path d="M35.1823 252.901L43.7229 257.299L52.7688 252.704L44.2254 248.305L35.1823 252.901ZM43.7257 257.03L35.7039 252.901L44.2227 248.575L52.2417 252.701L43.7257 257.03Z" fill="#379425"/>
<path d="M107.016 289.891L116.993 295.029L117.059 295.063L126.124 290.458L116.078 285.288L107.016 289.891ZM117.059 294.793L107.535 289.893L116.073 285.567L125.591 290.467L117.059 294.793Z" fill="#379425"/>
<path d="M116.796 294.928L127.251 300.312L127.317 300.345L136.382 295.74L125.861 290.323L116.796 294.928ZM127.317 300.076L117.32 294.93L125.858 290.604L135.857 295.75L127.317 300.076Z" fill="#379425"/>
<path d="M62.2295 266.828L107.213 289.991L107.279 290.027L116.341 285.423L71.2754 262.23L62.2295 266.828ZM107.295 289.758L62.7757 266.83L71.3 262.504L115.839 285.427L107.295 289.758Z" fill="#379425"/>
<path d="M51.9872 261.555L62.426 266.929L62.4916 266.963L71.5429 262.365L61.0358 256.958L51.9872 261.555ZM62.4916 266.696L52.5116 261.555L61.0358 257.229L71.0158 262.368L62.4916 266.696Z" fill="#379425"/>
<path d="M26.6034 248.481L35.4418 253.033L44.4849 248.438L35.6439 243.888L26.6034 248.481ZM35.4418 252.764L27.1278 248.481L35.6439 244.155L43.9605 248.435L35.4418 252.764Z" fill="#379425"/>
<path d="M27.2369 239.829L45.9024 249.442L54.9483 244.847L36.2583 235.234L27.2369 239.829ZM45.9024 249.166L27.7559 239.829L36.2556 235.486L54.4211 244.838L45.9024 249.166Z" fill="#379425"/>
<path d="M45.6361 249.3L54.8704 254.054L63.9164 249.456L54.682 244.705L45.6361 249.3ZM54.8704 253.785L46.1605 249.303L54.682 244.977L63.3919 249.461L54.8704 253.785Z" fill="#379425"/>
<path d="M54.6079 253.917L62.7007 258.084L71.7465 253.487L63.6539 249.322L54.6079 253.917ZM62.7007 257.815L55.1323 253.919L63.6539 249.593L71.2222 253.489L62.7007 257.815Z" fill="#379425"/>
<path d="M35.9915 235.35L50.407 242.772L50.4726 242.806L59.2754 238.335L44.7669 230.868L35.9915 235.35ZM50.4671 242.536L36.5213 235.353L44.7724 231.137L58.7537 238.333L50.4671 242.536Z" fill="#379425"/>
<path d="M88.4584 271.338L97.1984 275.835L106.247 271.24L97.5071 266.743L88.4584 271.338ZM97.1984 275.568L88.9856 271.341L97.5071 267.015L105.72 271.24L97.1984 275.568Z" fill="#379425"/>
<path d="M79.7975 266.883L88.7206 271.476L97.7664 266.879L88.8462 262.286L79.7975 266.883ZM97.2421 266.883L88.7206 271.209L80.3219 266.883L88.8434 262.557L93.6586 265.035L97.2421 266.883Z" fill="#379425"/>
<path d="M44.5043 231.003L52.9712 235.358L61.2114 231.172L52.7254 226.805L44.5043 231.003ZM52.9712 235.089L45.0341 231.003L52.7254 227.071L60.687 231.157L52.9712 235.089Z" fill="#379425"/>
<path d="M62.4387 257.95L71.2771 262.499L80.3257 257.902L71.482 253.352L62.4387 257.95ZM71.2798 262.23L62.9632 257.95L71.4847 253.624L79.8014 257.904L71.2798 262.23Z" fill="#379425"/>
<path d="M71.0153 262.365L80.0584 267.018L89.1071 262.423L80.0639 257.767L71.0153 262.365ZM80.0584 266.746L71.5424 262.363L80.0639 258.037L88.58 262.42L80.0584 266.746Z" fill="#379425"/>
<path d="M52.4601 226.937L64.2045 232.986L72.3983 228.829L60.6238 222.765L52.4601 226.937ZM64.2045 232.717L52.9763 226.949L60.6238 223.046L71.8738 228.836L64.2045 232.717Z" fill="#379425"/>
<path d="M106.535 246.669L114.879 250.963L121.33 247.685L112.948 243.41L106.535 246.669ZM114.882 250.694L107.059 246.669L112.948 243.679L120.803 247.685L114.882 250.694Z" fill="#379425"/>
<path d="M98.2729 242.414L106.797 246.798L113.21 243.539L104.645 239.172L98.2729 242.414ZM106.797 246.534L98.7946 242.417L104.642 239.444L112.68 243.544L106.797 246.534Z" fill="#379425"/>
<path d="M90.2029 238.262L98.5359 242.549L104.911 239.312L96.5394 235.044L90.2029 238.262ZM98.5359 242.283L90.73 238.264L96.5394 235.31L104.384 239.312L98.5359 242.283Z" fill="#379425"/>
<path d="M114.618 250.829L123.41 255.352L129.899 252.057L121.069 247.551L114.618 250.829ZM123.41 255.085L115.145 250.829L121.069 247.82L129.372 252.054L123.41 255.085Z" fill="#379425"/>
<path d="M71.8741 228.826L81.0676 233.558L87.3495 230.362L78.1151 225.651L71.8741 228.826ZM81.0676 233.289L72.3986 228.828L78.1342 225.918L86.8442 230.359L81.0676 233.289Z" fill="#379425"/>
<path d="M80.8044 233.424L90.4649 238.387L96.8042 235.166L87.0973 230.218L80.8044 233.424ZM90.4677 238.13L81.3289 233.426L87.0973 230.494L96.2771 235.176L90.4677 238.13Z" fill="#379425"/>
<path d="M60.6215 220.245L60.7819 219.876H60.6215V220.245Z" fill="#4F54D9"/>
<path d="M60.3615 222.901L72.1331 228.96L78.3877 225.783L66.5422 219.743L60.3615 222.901ZM72.1359 228.693L60.8858 222.901L66.5422 220.017L77.8606 225.785L72.1359 228.693Z" fill="#379425"/>
<path d="M123.147 255.21L132.417 259.983L138.95 256.664L129.636 251.915L123.147 255.21ZM132.433 259.714L123.693 255.212L129.658 252.182L138.445 256.664L132.433 259.714Z" fill="#379425"/>
<path d="M137.046 213.747L114.358 223.188V225.942L172.274 255.335L172.176 253.621V252.434L137.046 213.747Z" fill="#379425"/>
<path d="M196.615 240.019L139.24 212.13L172.176 252.435L172.274 255.335L196.615 242.773V240.019Z" fill="#8AE669"/>
<path d="M114.358 223.188L172.176 252.434L196.615 240.019L139.24 210.563L114.358 223.188Z" fill="#65BC46"/>
<path d="M194.665 224.38L137.286 196.492L170.446 212.186L170.324 239.697L194.665 227.134V224.38Z" fill="url(#paint0_linear_4728_23935)"/>
<path d="M170.448 239.697L139.877 224.166L139.606 212.186H170.448V239.697Z" fill="#0E033A"/>
<path d="M121.167 200.973L226.115 257.085L229.606 254.696V154.098L228.142 153.361L121.167 200.973Z" fill="#8AE669"/>
<path d="M89.5527 83.4736L85.5487 85.5189L89.0392 182.619L121.167 200.974L226.116 156.403L229.606 154.099L89.5527 83.4736Z" fill="url(#paint1_linear_4728_23935)"/>
<path d="M85.5487 184.922L226.116 257.085V156.404L85.5487 85.5192V184.922Z" fill="#379425"/>
<path d="M89.9092 180.413V93.4501L221.753 159.73V248.099L89.9092 180.413Z" fill="white"/>
<path d="M208.806 168.591L165.297 146.721C165.135 146.64 164.994 146.531 164.88 146.401C164.767 146.272 164.684 146.123 164.637 145.965C164.589 145.807 164.578 145.642 164.604 145.48C164.629 145.318 164.691 145.162 164.786 145.021C164.973 144.74 165.279 144.535 165.638 144.452C165.996 144.368 166.377 144.413 166.698 144.577L210.207 166.447C210.367 166.528 210.507 166.635 210.62 166.763C210.732 166.891 210.815 167.037 210.864 167.193C210.912 167.35 210.925 167.513 210.902 167.673C210.879 167.834 210.82 167.989 210.728 168.13C210.637 168.272 210.515 168.397 210.369 168.497C210.223 168.597 210.055 168.671 209.877 168.714C209.698 168.757 209.511 168.768 209.327 168.747C209.143 168.726 208.966 168.673 208.806 168.591Z" fill="#121212"/>
<path d="M123.677 125.789L102.498 115.142C102.176 114.98 101.94 114.711 101.843 114.396C101.745 114.081 101.793 113.744 101.977 113.46C102.162 113.176 102.467 112.969 102.825 112.883C103.183 112.797 103.566 112.839 103.889 113.001L125.067 123.645C125.388 123.808 125.624 124.077 125.722 124.392C125.819 124.707 125.771 125.043 125.589 125.328C125.404 125.611 125.099 125.819 124.741 125.905C124.382 125.992 124 125.95 123.677 125.789Z" fill="#737373"/>
<path d="M156.971 142.519L133.562 130.743C133.402 130.663 133.261 130.556 133.149 130.428C133.036 130.299 132.953 130.153 132.905 129.997C132.856 129.841 132.843 129.678 132.866 129.517C132.89 129.356 132.949 129.201 133.04 129.061C133.131 128.92 133.253 128.797 133.398 128.697C133.544 128.598 133.71 128.525 133.888 128.483C134.065 128.44 134.251 128.429 134.433 128.449C134.616 128.469 134.792 128.521 134.952 128.602L158.361 140.378C158.521 140.458 158.661 140.566 158.774 140.694C158.887 140.822 158.97 140.968 159.018 141.124C159.067 141.28 159.08 141.444 159.056 141.604C159.033 141.765 158.974 141.92 158.883 142.06C158.792 142.201 158.67 142.324 158.524 142.424C158.379 142.523 158.213 142.596 158.035 142.638C157.858 142.681 157.672 142.693 157.49 142.672C157.307 142.652 157.131 142.6 156.971 142.519Z" fill="#121212"/>
<path d="M161.032 151.866L102.499 122.447C102.177 122.284 101.942 122.015 101.844 121.7C101.746 121.385 101.794 121.049 101.977 120.765C102.162 120.482 102.467 120.274 102.825 120.188C103.183 120.103 103.566 120.145 103.889 120.306L162.433 149.727C162.755 149.89 162.991 150.158 163.089 150.474C163.187 150.789 163.139 151.126 162.955 151.41C162.863 151.551 162.741 151.676 162.595 151.776C162.448 151.875 162.281 151.949 162.102 151.991C161.923 152.033 161.736 152.044 161.553 152.023C161.369 152.002 161.192 151.948 161.032 151.866Z" fill="#121212"/>
<path d="M207.958 175.46L170.9 156.836C170.738 156.755 170.597 156.646 170.484 156.516C170.37 156.386 170.287 156.238 170.24 156.08C170.192 155.921 170.181 155.756 170.207 155.594C170.232 155.432 170.294 155.276 170.389 155.135C170.577 154.854 170.884 154.65 171.242 154.568C171.6 154.485 171.981 154.531 172.301 154.695L209.348 173.319C209.626 173.458 209.842 173.677 209.96 173.939C210.078 174.201 210.09 174.491 209.995 174.761C209.932 174.937 209.825 175.098 209.681 175.233C209.538 175.367 209.362 175.472 209.167 175.539C208.971 175.606 208.761 175.634 208.552 175.62C208.343 175.607 208.14 175.552 207.958 175.46Z" fill="white"/>
<path d="M206.555 189.226L166.195 168.93C166.035 168.849 165.895 168.742 165.782 168.614C165.669 168.486 165.586 168.34 165.538 168.184C165.489 168.027 165.476 167.864 165.5 167.704C165.523 167.543 165.582 167.388 165.673 167.247C165.764 167.107 165.886 166.983 166.032 166.884C166.177 166.785 166.343 166.712 166.521 166.669C166.698 166.627 166.884 166.615 167.066 166.636C167.249 166.656 167.425 166.708 167.585 166.788L207.947 187.077C208.161 187.186 208.339 187.342 208.463 187.53C208.586 187.719 208.652 187.932 208.652 188.149C208.653 188.366 208.589 188.578 208.466 188.766C208.344 188.954 208.168 189.11 207.956 189.219C207.743 189.328 207.502 189.386 207.256 189.387C207.01 189.389 206.768 189.333 206.555 189.226Z" fill="white"/>
<path d="M123.676 147.561L102.498 136.914C102.338 136.834 102.198 136.727 102.085 136.599C101.973 136.471 101.89 136.325 101.841 136.168C101.793 136.012 101.78 135.849 101.803 135.688C101.826 135.528 101.885 135.373 101.976 135.232C102.162 134.949 102.467 134.742 102.825 134.656C103.183 134.57 103.565 134.612 103.888 134.773L125.067 145.42C125.389 145.583 125.625 145.851 125.722 146.166C125.82 146.482 125.772 146.818 125.588 147.102C125.403 147.386 125.098 147.593 124.74 147.679C124.382 147.765 123.999 147.723 123.676 147.561Z" fill="white"/>
<path d="M156.971 164.292L133.562 152.515C133.239 152.353 133.004 152.084 132.906 151.769C132.808 151.454 132.856 151.117 133.04 150.833C133.131 150.692 133.253 150.568 133.398 150.469C133.544 150.37 133.71 150.297 133.888 150.254C134.065 150.211 134.251 150.2 134.433 150.22C134.616 150.241 134.792 150.293 134.952 150.374L158.361 162.15C158.522 162.23 158.662 162.337 158.775 162.465C158.888 162.593 158.971 162.74 159.019 162.896C159.068 163.052 159.081 163.216 159.057 163.376C159.034 163.537 158.975 163.692 158.883 163.833C158.792 163.973 158.67 164.097 158.525 164.196C158.379 164.295 158.213 164.368 158.035 164.411C157.858 164.453 157.672 164.465 157.49 164.444C157.307 164.424 157.131 164.372 156.971 164.292Z" fill="#121212"/>
<path d="M207.382 182.468L102.502 129.741C102.18 129.578 101.944 129.31 101.846 128.994C101.748 128.679 101.796 128.342 101.98 128.058C102.165 127.774 102.469 127.566 102.828 127.48C103.186 127.393 103.569 127.435 103.892 127.597L208.772 180.324C208.987 180.432 209.165 180.588 209.288 180.777C209.412 180.965 209.477 181.178 209.477 181.396C209.476 181.611 209.412 181.823 209.289 182.01C209.167 182.197 208.991 182.352 208.779 182.46C208.567 182.569 208.327 182.626 208.082 182.628C207.837 182.629 207.595 182.574 207.382 182.468Z" fill="#737373"/>
<path d="M208.805 197.289L165.296 175.419C165.135 175.338 164.994 175.229 164.88 175.1C164.767 174.97 164.684 174.822 164.637 174.664C164.589 174.507 164.578 174.342 164.604 174.18C164.629 174.018 164.691 173.862 164.786 173.722C164.973 173.44 165.279 173.235 165.637 173.152C165.996 173.069 166.377 173.114 166.698 173.277L210.207 195.148C210.366 195.228 210.507 195.335 210.619 195.463C210.732 195.591 210.815 195.738 210.863 195.894C210.912 196.05 210.925 196.213 210.902 196.374C210.878 196.534 210.82 196.69 210.728 196.83C210.637 196.972 210.515 197.097 210.368 197.197C210.222 197.297 210.055 197.37 209.876 197.413C209.697 197.455 209.51 197.467 209.326 197.445C209.143 197.424 208.966 197.371 208.805 197.289Z" fill="#737373"/>
<path d="M156.971 171.218L133.562 159.441C133.239 159.279 133.004 159.01 132.906 158.695C132.808 158.379 132.856 158.043 133.04 157.759C133.131 157.618 133.253 157.495 133.399 157.396C133.544 157.296 133.71 157.223 133.888 157.181C134.065 157.138 134.251 157.127 134.433 157.147C134.616 157.168 134.792 157.219 134.952 157.3L158.361 169.076C158.522 169.156 158.662 169.263 158.775 169.391C158.888 169.519 158.971 169.666 159.019 169.822C159.068 169.978 159.081 170.142 159.057 170.302C159.034 170.463 158.975 170.618 158.883 170.759C158.792 170.899 158.67 171.023 158.525 171.122C158.38 171.222 158.213 171.295 158.036 171.338C157.858 171.38 157.672 171.392 157.49 171.371C157.307 171.35 157.131 171.298 156.971 171.218Z" fill="white"/>
<path d="M161.032 180.57L102.498 151.145C102.338 151.065 102.198 150.958 102.085 150.83C101.973 150.702 101.89 150.555 101.841 150.399C101.793 150.243 101.78 150.08 101.803 149.919C101.826 149.759 101.885 149.604 101.976 149.463C102.161 149.179 102.466 148.972 102.825 148.886C103.183 148.8 103.565 148.842 103.888 149.004L162.433 178.428C162.593 178.508 162.733 178.616 162.846 178.744C162.958 178.872 163.041 179.018 163.09 179.174C163.138 179.33 163.151 179.494 163.128 179.654C163.105 179.815 163.046 179.97 162.955 180.111C162.863 180.252 162.741 180.377 162.595 180.477C162.448 180.577 162.281 180.65 162.102 180.693C161.923 180.736 161.737 180.747 161.553 180.726C161.369 180.704 161.192 180.651 161.032 180.57Z" fill="#121212"/>
<path d="M207.958 204.16L170.9 185.537C170.738 185.455 170.597 185.347 170.484 185.217C170.37 185.087 170.287 184.938 170.24 184.78C170.192 184.622 170.181 184.457 170.207 184.294C170.232 184.132 170.294 183.976 170.389 183.835C170.577 183.554 170.883 183.35 171.241 183.267C171.6 183.184 171.981 183.229 172.301 183.393L209.348 202.017C209.626 202.156 209.842 202.375 209.96 202.637C210.078 202.9 210.09 203.189 209.995 203.459C209.932 203.635 209.825 203.796 209.682 203.931C209.539 204.067 209.363 204.172 209.167 204.239C208.972 204.306 208.762 204.334 208.552 204.321C208.343 204.307 208.14 204.252 207.958 204.16Z" fill="#121212"/>
<path d="M206.555 217.924L166.195 197.635C166.035 197.555 165.895 197.447 165.782 197.319C165.669 197.191 165.586 197.045 165.538 196.889C165.489 196.733 165.476 196.569 165.5 196.409C165.523 196.248 165.582 196.093 165.673 195.952C165.764 195.812 165.886 195.688 166.032 195.589C166.177 195.49 166.343 195.417 166.521 195.374C166.698 195.332 166.884 195.32 167.066 195.341C167.249 195.361 167.425 195.413 167.585 195.493L207.947 215.795C208.162 215.903 208.34 216.059 208.463 216.247C208.587 216.435 208.652 216.649 208.652 216.866C208.65 217.081 208.583 217.292 208.46 217.478C208.336 217.663 208.16 217.817 207.948 217.924C207.736 218.031 207.495 218.087 207.251 218.087C207.007 218.087 206.767 218.031 206.555 217.924Z" fill="white"/>
<path d="M123.676 176.263L102.498 165.616C102.338 165.535 102.198 165.428 102.085 165.3C101.973 165.172 101.89 165.026 101.841 164.87C101.793 164.713 101.78 164.55 101.803 164.39C101.826 164.229 101.885 164.074 101.976 163.933C102.161 163.65 102.466 163.442 102.825 163.356C103.183 163.27 103.565 163.313 103.888 163.474L125.067 174.121C125.226 174.202 125.367 174.309 125.479 174.437C125.592 174.565 125.675 174.711 125.723 174.867C125.772 175.024 125.785 175.187 125.762 175.347C125.739 175.508 125.68 175.663 125.588 175.804C125.403 176.087 125.098 176.295 124.74 176.381C124.382 176.467 123.999 176.424 123.676 176.263Z" fill="#121212"/>
<path d="M156.973 192.992L133.563 181.216C133.241 181.053 133.006 180.784 132.908 180.469C132.811 180.154 132.858 179.818 133.041 179.533C133.226 179.25 133.531 179.042 133.889 178.956C134.248 178.87 134.63 178.913 134.953 179.074L158.363 190.851C158.523 190.931 158.663 191.038 158.776 191.166C158.889 191.294 158.972 191.44 159.021 191.596C159.069 191.753 159.082 191.916 159.059 192.077C159.035 192.237 158.976 192.392 158.884 192.533C158.793 192.674 158.671 192.797 158.526 192.896C158.38 192.995 158.214 193.068 158.037 193.111C157.859 193.154 157.674 193.165 157.491 193.145C157.309 193.124 157.132 193.072 156.973 192.992Z" fill="#737373"/>
<path d="M161.032 202.336L102.498 172.919C102.176 172.756 101.94 172.488 101.843 172.173C101.745 171.857 101.793 171.521 101.977 171.237C102.161 170.953 102.466 170.745 102.824 170.658C103.183 170.572 103.565 170.614 103.889 170.775L162.433 200.202C162.593 200.282 162.733 200.389 162.846 200.517C162.959 200.645 163.042 200.792 163.09 200.948C163.138 201.104 163.151 201.267 163.128 201.428C163.105 201.589 163.046 201.744 162.955 201.884C162.863 202.025 162.74 202.149 162.593 202.249C162.447 202.348 162.279 202.421 162.1 202.463C161.922 202.505 161.735 202.515 161.552 202.493C161.368 202.472 161.192 202.418 161.032 202.336Z" fill="#737373"/>
<path d="M206.555 225.228L170.901 207.299C170.579 207.137 170.343 206.868 170.245 206.553C170.147 206.238 170.196 205.901 170.379 205.617C170.47 205.476 170.592 205.353 170.737 205.253C170.883 205.154 171.049 205.081 171.227 205.038C171.405 204.995 171.59 204.984 171.773 205.005C171.955 205.025 172.132 205.077 172.291 205.158L207.959 223.085C208.173 223.193 208.35 223.35 208.474 223.538C208.598 223.726 208.663 223.939 208.663 224.157C208.664 224.374 208.6 224.588 208.476 224.776C208.353 224.964 208.176 225.121 207.962 225.23C207.748 225.338 207.505 225.396 207.258 225.395C207.011 225.395 206.768 225.338 206.555 225.228Z" fill="#121212"/>
<path d="M207.383 211.167L102.503 158.439C102.343 158.359 102.203 158.252 102.09 158.124C101.977 157.996 101.894 157.85 101.846 157.693C101.798 157.537 101.784 157.374 101.808 157.213C101.831 157.053 101.89 156.898 101.981 156.757C102.166 156.474 102.471 156.267 102.83 156.181C103.188 156.095 103.57 156.137 103.893 156.298L208.773 209.025C208.988 209.133 209.166 209.289 209.29 209.478C209.414 209.666 209.479 209.88 209.478 210.097C209.478 210.313 209.413 210.525 209.291 210.712C209.168 210.898 208.992 211.054 208.78 211.162C208.568 211.27 208.327 211.328 208.082 211.328C207.837 211.329 207.596 211.273 207.383 211.167Z" fill="white"/>
<path opacity="0.3" d="M201.103 315.097C200.759 314.933 200.409 314.77 200.06 314.616C197.408 313.4 194.638 312.33 193.161 311.972C182.572 309.42 160.178 311.867 151.443 332.677C149.428 337.484 157.31 343.882 169.565 341.534C170.112 341.43 171.278 341.007 172.856 340.373L172.927 340.346L173.632 340.048L173.905 339.94L174.629 339.637L174.979 339.491C175.222 339.39 175.47 339.282 175.724 339.173L176.129 339.003L176.91 338.666L177.328 338.484L178.174 338.116L178.579 337.938L179.483 337.539L179.879 337.364L180.829 336.943L181.192 336.78L182.23 336.316H182.255C183.563 335.729 184.907 335.114 186.256 334.506L186.398 334.441L187.42 333.975L187.906 333.751L188.804 333.338L189.372 333.079L190.265 332.665L190.812 332.425L191.678 332.023L192.276 331.745L193.07 331.377L193.658 331.103L194.477 330.723L194.993 330.483L195.777 330.115L196.414 329.815L197.058 329.512L197.443 329.332L198.934 328.625L199.363 328.421C199.557 328.329 199.743 328.243 199.929 328.152L200.453 327.911L200.917 327.69L201.464 327.435L201.857 327.246L202.359 327.005L202.695 326.842L203.132 326.628L203.438 326.479L203.782 326.308L204.056 326.181L204.329 326.039L204.523 325.941C204.613 325.897 204.681 325.859 204.749 325.823L204.859 325.768C204.949 325.719 205.014 325.683 205.053 325.659C205.287 325.51 205.514 325.357 205.733 325.198L205.825 325.131C206.044 324.971 206.252 324.802 206.451 324.624C206.852 324.27 207.19 323.864 207.453 323.422C208.191 322.162 208.139 320.603 206.609 318.507C205.984 317.651 203.692 316.339 201.103 315.097Z" fill="#65BC46"/>
<path d="M185.922 311.571C177.509 309.391 159.718 311.479 152.778 329.252C151.18 333.35 157.44 338.822 167.177 336.815C170.056 336.224 194.356 323.907 195.347 323.236C197.368 321.869 198.638 320.143 196.59 317.13C195.56 315.623 188.418 312.219 185.922 311.571Z" fill="#65BC46"/>
<path d="M177.115 324.878C171.414 328.687 169.317 333.835 168.566 336.337C174.525 333.953 194.447 323.84 195.332 323.236C196.13 322.741 196.785 322.087 197.244 321.328C192.959 320.559 184.489 319.951 177.115 324.878Z" fill="#379425"/>
<path d="M184.75 314.438C184.52 314.537 184.344 314.713 184.261 314.927C184.178 315.141 184.195 315.374 184.308 315.577C184.421 315.78 184.621 315.935 184.864 316.008C185.106 316.081 185.372 316.066 185.603 315.966C186.796 315.464 189.907 314.498 194.501 315.507C193.602 314.959 192.515 314.375 191.398 313.825C187.834 313.508 185.826 313.974 184.75 314.438Z" fill="#379425"/>
<path d="M147.781 61.283C148.395 62.2203 148.423 63.2201 147.841 63.5157C147.259 63.8113 146.289 63.2898 145.675 62.3549C145.06 61.42 145.033 60.4178 145.615 60.1222C146.197 59.8266 147.166 60.3481 147.781 61.283Z" fill="#333C8A"/>
<path d="M147.781 67.0277C148.395 67.965 148.423 68.9648 147.841 69.2604C147.259 69.556 146.289 69.0345 145.675 68.0972C145.06 67.1599 145.033 66.1745 145.615 65.8669C146.197 65.5592 147.166 66.0808 147.781 67.0277Z" fill="#333C8A"/>
<path d="M147.781 73.1347C148.395 74.072 148.423 75.0718 147.841 75.3674C147.259 75.6631 146.289 75.1415 145.675 74.2042C145.06 73.2669 145.033 72.2695 145.615 71.9739C146.197 71.6783 147.166 72.1974 147.781 73.1347Z" fill="#65BC46"/>
<path d="M147.781 79.5799C148.395 80.5172 148.423 81.517 147.841 81.8126C147.259 82.1082 146.289 81.5891 145.675 80.6518C145.06 79.7145 145.033 78.7147 145.615 78.4191C146.197 78.1235 147.166 78.645 147.781 79.5799Z" fill="#65BC46"/>
<path d="M147.781 85.3145C148.395 86.2519 148.423 87.2516 147.841 87.5472C147.259 87.8429 146.289 87.3213 145.675 86.3864C145.06 85.4515 145.033 84.4493 145.615 84.1537C146.197 83.8581 147.166 84.3772 147.781 85.3145Z" fill="#65BC46"/>
<path d="M147.781 91.4309C148.395 92.3682 148.423 93.368 147.841 93.6637C147.259 93.9593 146.289 93.4377 145.675 92.5004C145.06 91.5631 145.033 90.5777 145.615 90.2701C146.197 89.9625 147.166 90.4936 147.781 91.4309Z" fill="#65BC46"/>
<path d="M147.781 97.815C148.395 98.7523 148.423 99.7521 147.841 100.048C147.259 100.343 146.289 99.8218 145.675 98.8845C145.06 97.9472 145.033 96.9618 145.615 96.6542C146.197 96.3466 147.166 96.8777 147.781 97.815Z" fill="#65BC46"/>
<path d="M147.781 104.26C148.395 105.198 148.423 106.197 147.841 106.493C147.259 106.789 146.289 106.267 145.675 105.332C145.06 104.397 145.033 103.395 145.615 103.1C146.197 102.804 147.166 103.318 147.781 104.26Z" fill="#65BC46"/>
<path d="M86.1764 13.9306V20.7633L92.3709 17.6533V10.7822L86.1764 13.9306Z" fill="#379425"/>
<path d="M79.9813 10.7822V17.6533L86.1758 20.7633V13.9306L79.9813 10.7822Z" fill="#65BC46"/>
<path d="M92.3703 10.7816L86.1758 7.6933L79.9813 10.7816L86.1758 13.93L92.3703 10.7816Z" fill="#8AE669"/>
<path d="M42.553 196.194V203.027L48.7474 199.917V193.046L42.553 196.194Z" fill="#379425"/>
<path d="M36.3579 193.046V199.917L42.5524 203.027V196.194L36.3579 193.046Z" fill="#65BC46"/>
<path d="M48.7469 193.045L42.5524 189.957L36.3579 193.045L42.5524 196.193L48.7469 193.045Z" fill="#8AE669"/>
<path d="M96.8037 309.208V316.041L102.998 312.931V306.06L96.8037 309.208Z" fill="#379425"/>
<path d="M90.6108 306.06V312.931L96.8054 316.041V309.208L90.6108 306.06Z" fill="#65BC46"/>
<path d="M103 306.061L96.8053 302.972L90.6108 306.061L96.8053 309.209L103 306.061Z" fill="#8AE769"/>
<path d="M244.681 286.02V293.461L251.43 290.075V282.593L244.681 286.02Z" fill="#F2B60F"/>
<path d="M237.934 282.593V290.075L244.68 293.461V286.02L237.934 282.593Z" fill="#FFDB2C"/>
<path d="M251.429 282.594L244.68 279.229L237.934 282.594L244.68 286.021L251.429 282.594Z" fill="#FFEC9C"/>
<path opacity="0.2" d="M50.659 209.044L43.4075 205.427L36.1533 209.044L43.4075 212.731L50.659 209.044Z" fill="#65BC46"/>
<path opacity="0.2" d="M264.833 60.1896L257.581 56.5726L250.327 60.1896L257.581 63.8764L264.833 60.1896Z" fill="#65BC46"/>
<path opacity="0.2" d="M276.883 193.552L268.623 189.439L260.359 193.552L268.623 197.744L276.883 193.552Z" fill="#65BC46"/>
<path opacity="0.2" d="M76.5803 189.423L69.3288 185.806L62.0746 189.423L69.3288 193.11L76.5803 189.423Z" fill="#E8B400"/>
<path opacity="0.2" d="M251.507 300.992L244.722 297.394L237.934 300.992L244.722 304.66L251.507 300.992Z" fill="#E8B400"/>
<path opacity="0.2" d="M104.058 322.764L96.8035 319.147L89.552 322.764L96.8035 326.448L104.058 322.764Z" fill="#65BC46"/>
<path d="M19.4882 156.379L29.8888 161.777L41.1661 156.182L30.5279 150.779L19.4882 156.379Z" fill="#8AE669"/>
<path d="M19.3333 171.819L29.7366 177.217L29.8868 161.778L19.4862 156.38L19.3333 171.819Z" fill="#65BC46"/>
<path d="M29.7374 177.217L41.0148 171.622L41.165 156.183L29.8876 161.778L29.7374 177.217Z" fill="#379425"/>
<path d="M268.595 185.508L276.999 181.288V171.966L268.595 176.236V185.508Z" fill="#379425"/>
<path d="M260.188 181.288L268.595 185.508V176.236L260.188 171.966V181.288Z" fill="#65BC46"/>
<path d="M260.188 171.965L268.595 176.236L276.999 171.965L268.595 167.774L260.188 171.965Z" fill="#8AE669"/>
<path d="M174.928 99.0615L181.961 95.5285V87.7272L174.928 91.301V99.0615Z" fill="#379425"/>
<path d="M167.895 95.5285L174.928 99.0615V91.301L167.895 87.7272V95.5285Z" fill="#65BC46"/>
<path d="M167.895 87.7281L174.928 91.3019L181.961 87.7281L174.928 84.2216L167.895 87.7281Z" fill="#8AE669"/>
<path d="M257.484 52.5721L263.46 49.5727V42.9443L257.484 45.9797V52.5721Z" fill="#379425"/>
<path d="M251.508 49.5727L257.484 52.5721V45.9797L251.508 42.9443V49.5727Z" fill="#65BC46"/>
<path d="M251.508 42.9442L257.484 45.9796L263.46 42.9442L257.484 39.9641L251.508 42.9442Z" fill="#8AE669"/>
<path d="M69.3749 183.52L75.3508 180.521V173.893L69.3749 176.928V183.52Z" fill="#E8B400"/>
<path d="M63.3971 180.521L69.3731 183.52V176.928L63.3971 173.893V180.521Z" fill="#FFDB2C"/>
<path d="M63.3971 173.892L69.3731 176.927L75.3491 173.892L69.3731 170.912L63.3971 173.892Z" fill="#FFEC9C"/>
<path opacity="0.15" d="M244.844 147.21L188.22 118.745C188.037 118.653 187.83 118.605 187.62 118.606C187.409 118.606 187.203 118.656 187.021 118.749C186.839 118.841 186.688 118.975 186.583 119.135C186.478 119.296 186.423 119.477 186.423 119.663V156.169C186.423 156.354 186.478 156.535 186.582 156.695C186.687 156.855 186.837 156.988 187.018 157.08L243.643 186.161C243.825 186.254 244.032 186.304 244.244 186.304C244.455 186.304 244.662 186.256 244.845 186.163C245.028 186.071 245.18 185.937 245.286 185.777C245.392 185.616 245.448 185.433 245.448 185.248V148.128C245.448 147.942 245.392 147.759 245.286 147.597C245.18 147.436 245.028 147.303 244.844 147.21Z" fill="#2B3154"/>
<path d="M240.908 141.8L184.284 113.335C184.101 113.243 183.894 113.195 183.684 113.196C183.474 113.197 183.268 113.246 183.086 113.338C182.904 113.431 182.753 113.564 182.648 113.724C182.543 113.884 182.487 114.066 182.486 114.251V150.758C182.487 150.942 182.542 151.124 182.646 151.284C182.751 151.444 182.901 151.577 183.082 151.671L239.706 180.751C239.889 180.845 240.096 180.895 240.308 180.896C240.519 180.897 240.727 180.849 240.91 180.756C241.094 180.663 241.246 180.529 241.351 180.368C241.457 180.207 241.512 180.024 241.512 179.838V142.716C241.512 142.53 241.456 142.347 241.35 142.187C241.244 142.026 241.091 141.893 240.908 141.8Z" fill="white"/>
<path d="M240.908 141.8L184.284 113.335C184.101 113.243 183.894 113.195 183.684 113.196C183.474 113.197 183.268 113.246 183.086 113.338C182.904 113.431 182.753 113.564 182.648 113.724C182.543 113.884 182.487 114.066 182.486 114.251V118.293L241.512 148.032V142.716C241.512 142.53 241.456 142.347 241.35 142.187C241.244 142.026 241.091 141.893 240.908 141.8Z" fill="#CB4D32"/>
<path d="M239.014 142.199L234.125 139.741C234.05 139.703 233.962 139.694 233.879 139.714C233.796 139.734 233.726 139.782 233.684 139.848C233.641 139.913 233.63 139.991 233.653 140.064C233.676 140.137 233.731 140.198 233.805 140.236L238.694 142.692C238.731 142.711 238.771 142.723 238.813 142.728C238.855 142.733 238.898 142.73 238.939 142.72C238.98 142.71 239.018 142.693 239.052 142.67C239.085 142.647 239.113 142.619 239.134 142.586C239.155 142.554 239.169 142.518 239.174 142.481C239.18 142.444 239.177 142.407 239.166 142.371C239.155 142.335 239.135 142.301 239.109 142.271C239.083 142.242 239.051 142.217 239.014 142.199Z" fill="white"/>
<path d="M239.026 143.525L234.137 141.066C234.063 141.029 233.974 141.019 233.892 141.039C233.809 141.059 233.739 141.107 233.696 141.173C233.654 141.239 233.643 141.316 233.666 141.389C233.688 141.462 233.743 141.524 233.818 141.561L238.707 144.02C238.744 144.038 238.784 144.05 238.826 144.054C238.869 144.059 238.911 144.056 238.952 144.046C238.993 144.036 239.031 144.019 239.065 143.996C239.098 143.973 239.126 143.944 239.147 143.912C239.168 143.879 239.182 143.844 239.187 143.807C239.193 143.77 239.19 143.732 239.179 143.696C239.167 143.66 239.148 143.626 239.122 143.597C239.096 143.567 239.063 143.543 239.026 143.525Z" fill="white"/>
<path d="M239.014 144.755L234.125 142.296C234.05 142.259 233.962 142.249 233.879 142.269C233.796 142.289 233.726 142.337 233.684 142.403C233.641 142.469 233.63 142.546 233.653 142.619C233.676 142.692 233.731 142.754 233.805 142.791L238.694 145.25C238.731 145.268 238.772 145.28 238.814 145.284C238.856 145.289 238.899 145.286 238.939 145.276C238.98 145.266 239.019 145.249 239.052 145.226C239.085 145.203 239.113 145.174 239.134 145.142C239.155 145.109 239.169 145.074 239.174 145.037C239.18 145 239.177 144.962 239.166 144.926C239.155 144.89 239.135 144.856 239.109 144.827C239.083 144.797 239.051 144.773 239.014 144.755Z" fill="white"/>
<path d="M227.034 150.479L195.133 134.442C194.579 134.163 193.952 134.017 193.314 134.019C192.676 134.02 192.05 134.169 191.498 134.451C190.946 134.733 190.488 135.137 190.17 135.623C189.851 136.11 189.684 136.661 189.684 137.222V139.734C189.684 141.238 190.132 142.715 190.983 144.019C191.834 145.323 193.059 146.407 194.535 147.165L227.605 164.142C228.158 164.424 228.785 164.572 229.424 164.572C230.062 164.573 230.69 164.425 231.244 164.145C231.797 163.864 232.257 163.46 232.577 162.974C232.897 162.488 233.066 161.936 233.067 161.374V159.646C233.068 157.786 232.511 155.958 231.451 154.348C230.392 152.739 228.868 151.404 227.034 150.479Z" fill="#E8B400"/>
<path d="M197.135 141.01C196.382 141.392 196.417 142.692 197.212 143.894C198.007 145.096 199.266 145.781 200.017 145.399C200.768 145.016 200.735 143.716 199.94 142.515C199.146 141.313 197.887 140.628 197.135 141.01Z" fill="white"/>
<path d="M203.403 143.819C202.652 144.202 202.688 145.502 203.483 146.703C204.277 147.905 205.534 148.59 206.288 148.208C207.041 147.826 207.006 146.526 206.211 145.324C205.416 144.122 204.16 143.435 203.403 143.819Z" fill="white"/>
<path d="M209.911 147.035C209.158 147.417 209.193 148.717 209.991 149.919C210.788 151.121 212.042 151.806 212.796 151.423C213.549 151.041 213.514 149.741 212.716 148.539C211.919 147.338 210.665 146.65 209.911 147.035Z" fill="white"/>
<path d="M216.239 150.136C215.486 150.518 215.521 151.819 216.319 153.02C217.116 154.222 218.37 154.907 219.124 154.525C219.877 154.143 219.842 152.842 219.044 151.641C218.247 150.439 216.993 149.754 216.239 150.136Z" fill="white"/>
<path d="M222.745 153.351C221.991 153.733 222.026 155.033 222.821 156.235C223.616 157.437 224.875 158.122 225.629 157.74C226.383 157.357 226.347 156.057 225.55 154.856C224.752 153.654 223.499 152.969 222.745 153.351Z" fill="white"/>
<path d="M187.574 117.363C187.232 117.536 187.249 118.125 187.609 118.678C187.97 119.231 188.543 119.536 188.888 119.363C189.232 119.19 189.213 118.599 188.852 118.048C188.491 117.498 187.918 117.188 187.574 117.363Z" fill="white"/>
<path d="M190.428 118.64C190.086 118.815 190.1 119.404 190.463 119.957C190.826 120.51 191.397 120.815 191.739 120.64C192.08 120.464 192.066 119.878 191.703 119.325C191.34 118.772 190.769 118.46 190.428 118.64Z" fill="white"/>
<path d="M193.39 120.103C193.046 120.278 193.063 120.867 193.426 121.418C193.789 121.968 194.36 122.276 194.701 122.103C195.043 121.93 195.029 121.341 194.666 120.788C194.303 120.235 193.732 119.93 193.39 120.103Z" fill="white"/>
<path d="M16.4779 57.2295L72.8729 85.6155L79.2504 82.2412L16.4779 51.0289V57.2295Z" fill="#379425"/>
<path d="M22.8568 53.855L79.2519 82.241V39.3435L22.8568 10.6932V53.855Z" fill="#379425"/>
<path d="M20.3354 53.855L74.3461 83.3201L76.7305 82.241V39.3435L20.3354 10.6932V53.855Z" fill="#EFEFEF"/>
<path d="M17.946 54.9341L74.3438 83.3201V40.4226L17.946 11.7723V54.9341Z" fill="white"/>
<path d="M41.4381 21.6043C41.4383 20.859 41.2156 20.1268 40.7922 19.4813C40.3689 18.8358 39.7599 18.2998 39.0264 17.9271L19.0035 7.75615C18.7482 7.62619 18.4586 7.55765 18.1637 7.55743C17.8688 7.55722 17.579 7.62533 17.3235 7.75492C17.0679 7.88451 16.8557 8.07101 16.7081 8.29567C16.5605 8.52033 16.4827 8.77523 16.4825 9.03474V57.2219L72.8776 85.6079V42.7177L41.4381 26.745V21.6043Z" fill="#65BC46"/>
<path opacity="0.1" d="M60.9711 64.0472L60.8509 62.5043C60.7956 61.7577 60.5312 61.0348 60.0813 60.3999C59.6315 59.765 59.0101 59.2379 58.2725 58.8656L52.0125 55.6187L51.6192 55.7725V55.1356C51.6192 54.6309 51.6192 54.1214 51.6192 53.6287C51.6192 53.3884 51.6192 53.148 51.6192 52.9077C51.6192 51.6075 51.6193 50.5044 51.5674 49.9756C51.5674 49.817 51.5346 49.656 51.51 49.4949C51.51 49.4589 51.51 49.4205 51.4909 49.382C51.4636 49.2282 51.4335 49.0744 51.3953 48.9182C51.3953 48.8917 51.3816 48.8629 51.3735 48.834C51.3407 48.7042 51.3024 48.5745 51.2614 48.4423L51.2205 48.3101C51.1713 48.1659 51.1194 48.0241 51.0648 47.8823L50.9992 47.7237C50.9555 47.6227 50.9118 47.5218 50.8654 47.4233L50.7835 47.2478C50.7206 47.1228 50.6551 47.0075 50.5868 46.8753C50.5486 46.8008 50.5049 46.7287 50.4639 46.6566C50.423 46.5845 50.382 46.5196 50.3383 46.4523C50.2591 46.3225 50.1744 46.1928 50.0897 46.0654L49.9805 45.9091C49.9204 45.8226 49.8576 45.7385 49.792 45.6544C49.7647 45.6159 49.7347 45.5799 49.7074 45.5438C49.5872 45.39 49.4615 45.2386 49.3331 45.0896C49.3031 45.056 49.2758 45.0223 49.2458 44.9911C48.3818 44.0135 47.3208 43.1841 46.1158 42.5445C43.7423 41.3019 40.9919 41.2058 38.7578 42.2825C36.4116 43.4121 35.0104 45.6207 34.9121 48.3437V48.3702V49.9516L28.0567 52.5568C27.6125 52.6003 27.1932 52.7593 26.8522 53.0135C26.4118 53.3435 26.1298 53.8081 26.0628 54.3137L24.3312 66.9505L24.0936 68.6833C24.0936 68.7867 24.0936 68.8948 24.0718 69.003C24.0731 69.023 24.0731 69.043 24.0718 69.063C24.0718 69.1688 24.0718 69.2745 24.0718 69.3803V69.4428C24.0718 69.6831 24.0718 69.9234 24.0936 70.1638V70.1758C24.3913 74.6316 27.6852 80.8779 38.0039 85.7976C40.6644 87.0831 43.7687 87.4646 46.7276 86.8695C52.0727 86.0908 57.516 83.226 59.5235 82.2911C60.0413 82.0464 60.5041 81.7206 60.8891 81.3298C61.0405 81.178 61.1801 81.0174 61.307 80.8491C61.4969 80.5926 61.6544 80.3186 61.7768 80.0319C62.0268 79.4479 62.1311 78.8233 62.0827 78.2006L60.9711 64.0472ZM48.2461 57.0367L43.898 54.9145L43.8652 51.6748L39.0227 49.2426C38.8192 49.1417 38.5989 49.0695 38.3699 49.0287V48.4183C38.4382 46.8104 39.1893 45.5342 40.4266 44.9454C41.5819 44.3902 43.054 44.4647 44.3677 45.1545C44.4852 45.217 44.5999 45.2819 44.7146 45.3492L44.8157 45.4117L45.056 45.5655L45.1598 45.6352C45.2554 45.7001 45.3483 45.7674 45.433 45.8371L45.4712 45.8659C45.5722 45.9428 45.6706 46.0245 45.7689 46.1062L45.8672 46.1927C45.9327 46.2504 45.9983 46.3081 46.0611 46.3682L46.1677 46.4667L46.3616 46.6638L46.4381 46.7431C46.52 46.8296 46.5964 46.9186 46.6729 47.0075C46.7084 47.0483 46.7412 47.0916 46.774 47.1324L46.9078 47.2983L47.0116 47.4353L47.1318 47.6059L47.241 47.7669C47.2929 47.8487 47.3448 47.9304 47.394 48.0073L47.4787 48.1611C47.5087 48.214 47.536 48.2644 47.5633 48.3173L47.6452 48.4783C47.6698 48.5312 47.6944 48.5841 47.7163 48.6369C47.7381 48.6898 47.7654 48.7403 47.7873 48.7932C47.9756 49.2416 48.0933 49.7106 48.1369 50.1871C48.268 51.6604 48.268 55.2269 48.2461 57.0367Z" fill="#121212"/>
<path d="M57.6205 61.7402C57.566 61.0045 57.3055 60.2922 56.8624 59.6665C56.4192 59.0409 55.807 58.5214 55.0804 58.1544L49.0225 55.1238V58.2241L40.9216 54.261L40.8888 51.0669L36.1064 48.6636C35.7876 48.5063 35.4295 48.421 35.0642 48.4155C34.6988 48.4099 34.3375 48.4841 34.0128 48.6315C33.688 48.7789 33.4099 48.9949 33.2033 49.2601C32.9967 49.5254 32.868 49.8315 32.8289 50.1512L30.8897 64.3166C30.5128 68.7099 25.5965 81.8851 37.8517 85.5334C44.3384 87.4561 53.551 82.5388 56.2877 81.2674C57.1087 80.8823 57.7851 80.2958 58.235 79.5792C58.6849 78.8625 58.8889 78.0464 58.8223 77.2298L57.6205 61.7402Z" fill="#737373"/>
<path d="M57.7399 63.2665L29.6079 74.1657C29.627 78.809 30.3863 83.2792 37.0069 85.2451C43.4936 87.1678 53.5583 82.5294 56.295 81.258C57.1161 80.8728 57.7925 80.2864 58.2424 79.5697C58.6923 78.853 58.8963 78.037 58.8297 77.2203L57.7399 63.2665Z" fill="#121212"/>
<path d="M31.3743 54.5878L31.407 57.7819L40.9228 54.2634L40.89 51.0693L31.3743 54.5878Z" fill="#737373"/>
<path d="M39.5081 58.6449L45.566 61.6756L55.0817 58.1595L48.9118 54.9582L39.5081 58.6449Z" fill="#F2F2F2"/>
<path d="M31.4055 57.7819L39.5064 61.7451V58.6447L45.4114 56.4625L40.9212 54.2634L31.4055 57.7819Z" fill="#121212"/>
<path d="M26.5896 52.1828L31.372 54.5885L40.8877 51.07L36.1053 48.6642L26.5896 52.1828Z" fill="#F2F2F2"/>
<path d="M33.6418 64.3428C32.7705 64.8931 32.8552 66.3111 33.833 67.508C34.0052 67.7186 34.2 67.9142 34.4148 68.092V71.6057C34.413 71.7645 34.4469 71.922 34.5148 72.0692C34.5826 72.2164 34.6829 72.3503 34.8099 72.4632C34.9369 72.576 35.088 72.6656 35.2546 72.7268C35.4212 72.7879 35.5999 72.8194 35.7804 72.8194C35.9854 72.8194 36.182 72.7477 36.327 72.6202C36.4719 72.4926 36.5533 72.3196 36.5533 72.1392V68.8803C36.7762 68.8573 36.9891 68.7863 37.1733 68.6736C38.0446 68.1208 37.96 66.7028 36.9822 65.5084C36.0044 64.3139 34.5158 63.79 33.6418 64.3428Z" fill="#2D8FE8"/>
<path d="M24.0914 52.3916L26.5905 52.1825L36.1062 48.664L34.3664 48.503L24.0914 52.3916Z" fill="#737373"/>
<path d="M48.1059 65.2636C48.0514 64.5279 47.7909 63.8156 47.3477 63.1899C46.9046 62.5643 46.2925 62.0448 45.5659 61.6778L39.508 58.6447V61.7403L31.4043 57.7771L31.3715 54.5831L26.5891 52.1797C26.2703 52.0218 25.9118 51.9361 25.546 51.9303C25.1802 51.9245 24.8185 51.9989 24.4935 52.1467C24.1684 52.2944 23.8902 52.511 23.6839 52.7769C23.4776 53.0428 23.3497 53.3496 23.3116 53.6698L21.3724 67.8352C20.9873 72.2333 23.7049 79.2823 35.0697 84.7139C36.8636 85.5708 38.8702 86.0246 40.9114 86.0351C42.9526 86.0456 44.9652 85.6124 46.7704 84.774C47.5911 84.388 48.2673 83.801 48.7171 83.084C49.1669 82.3671 49.3711 81.5508 49.305 80.734L48.1059 65.2636Z" fill="#737373"/>
<path d="M45.5665 61.6778L39.5086 58.6447V61.7403L31.4049 57.7771L31.3722 54.5831L26.5897 52.1797C26.2709 52.0218 25.9125 51.9361 25.5467 51.9303C25.1809 51.9245 24.8192 51.9989 24.4941 52.1467C24.1691 52.2944 23.8909 52.511 23.6846 52.7769C23.4783 53.0428 23.3503 53.3496 23.3122 53.6698L21.373 67.8352C21.2092 69.6833 21.597 71.9713 22.9462 74.4011C23.3293 73.6052 23.786 72.8384 24.3119 72.1083C28.6191 66.16 37.37 62.9419 47.3855 63.2568C46.9443 62.6011 46.3176 62.0571 45.5665 61.6778Z" fill="#F2F2F2"/>
<path d="M33.6418 64.3428C32.7705 64.8931 32.8552 66.3111 33.833 67.508C34.0052 67.7186 34.2 67.9142 34.4148 68.092V71.6057C34.413 71.7645 34.4469 71.922 34.5148 72.0692C34.5826 72.2164 34.6829 72.3503 34.8099 72.4632C34.9369 72.576 35.088 72.6656 35.2546 72.7268C35.4212 72.7879 35.5999 72.8194 35.7804 72.8194C35.9854 72.8194 36.182 72.7477 36.327 72.6202C36.4719 72.4926 36.5533 72.3196 36.5533 72.1392V68.8803C36.7762 68.8573 36.9891 68.7863 37.1733 68.6736C38.0446 68.1208 37.96 66.7028 36.9822 65.5084C36.0044 64.3139 34.5158 63.79 33.6418 64.3428Z" fill="#121212"/>
<path d="M34.8822 65.3017C34.1393 65.7824 34.213 67.0586 35.0433 68.1257C35.1899 68.3123 35.3554 68.4868 35.5377 68.6472V71.7716C35.5344 71.9659 35.5901 72.1574 35.6991 72.3264C35.8081 72.4954 35.9664 72.6358 36.1577 72.7329C36.2811 72.6757 36.3844 72.59 36.4566 72.4849C36.5288 72.3799 36.5671 72.2596 36.5674 72.1369V68.8803C36.7902 68.8573 37.0031 68.7863 37.1874 68.6736C37.9904 68.1641 37.9795 66.924 37.2092 65.7896C36.4226 65.1311 35.4776 64.9028 34.8822 65.3017Z" fill="#121212"/>
<path d="M43.1216 42.066C40.7836 40.8427 38.0715 40.7441 35.8674 41.8064C33.5567 42.9216 32.1747 45.099 32.0764 47.7812V47.8004V50.8767C32.0764 50.8767 31.948 51.8693 33.1689 52.535C33.9883 52.9844 35.3539 52.6287 35.3703 52.3499L35.4577 47.8436C35.5232 46.2574 36.2607 45.0125 37.4843 44.4213C38.6205 43.8733 40.0735 43.9406 41.3709 44.628C43.4111 45.695 44.9406 47.7379 45.0909 49.5933C45.2493 51.516 45.1727 57.0821 45.1673 57.409C45.107 57.7589 45.1779 58.1165 45.3691 58.4278C45.5602 58.7391 45.8614 58.9872 46.227 59.1346C47.3769 59.6153 48.4339 59.161 48.4393 58.9159C48.4721 57.2984 48.6005 50.8719 48.4803 49.3794C48.2673 46.5699 46.1096 43.6282 43.1216 42.066Z" fill="#F2F2F2"/>
<path d="M41.1276 44.0882C40.0203 43.6674 38.7805 43.6011 37.6234 43.9008C36.8227 44.2089 36.1534 44.7322 35.7115 45.3956C34.4005 47.4505 35.2881 51.6684 34.619 52.125C33.4172 52.935 32.2838 51.63 32.0898 50.9738C32.1006 51.2969 32.2071 51.6118 32.3987 51.8875C32.5903 52.1632 32.8605 52.39 33.1823 52.5456C34.0017 52.995 35.3673 52.6393 35.3837 52.3606L35.4711 47.8543C35.5367 46.2681 36.2741 45.0231 37.4977 44.4319C38.6339 43.8839 40.087 43.9512 41.3843 44.6386C42.9344 45.4694 44.123 46.7337 44.7601 48.2292C44.345 46.6622 43.3508 44.9438 41.1276 44.0882Z" fill="#737373"/>
<path d="M45.9727 44.2223C46.3456 44.8017 46.6485 45.4139 46.8767 46.0488C47.33 47.313 47.3629 48.3128 47.4066 49.7404C47.4503 51.0694 47.4776 52.3048 46.9832 53.8501C46.704 54.7341 46.2935 55.5818 45.7623 56.3712C45.5766 56.6428 45.3827 56.8904 45.1888 57.1235C45.1888 57.2773 45.1888 57.3806 45.1888 57.4167C45.1285 57.7666 45.1993 58.1242 45.3905 58.4355C45.5817 58.7468 45.8829 58.9949 46.2485 59.1423C47.3984 59.623 48.4553 59.1687 48.4608 58.9236C48.4936 57.3061 48.622 50.8796 48.5018 49.3871C48.3516 47.587 47.412 45.734 45.9727 44.2223Z" fill="#737373"/>
<path d="M34.8669 43.3764C34.8259 43.3419 34.7772 43.315 34.724 43.2975C34.6708 43.2801 34.614 43.2723 34.5573 43.2748C34.5005 43.2773 34.445 43.2899 34.3939 43.3119C34.3429 43.3339 34.2975 43.3649 34.2606 43.4029C33.2825 44.4127 32.6952 45.6703 32.5836 46.9935C32.5791 47.0435 32.5863 47.0939 32.6048 47.1414C32.6232 47.1889 32.6526 47.2326 32.691 47.2697C32.7293 47.3069 32.776 47.3367 32.828 47.3574C32.8799 47.3781 32.9362 47.3892 32.9933 47.39H33.0097C33.1153 47.3915 33.2175 47.3576 33.2957 47.2951C33.3738 47.2326 33.422 47.1462 33.4303 47.0536C33.5279 45.8857 34.0454 44.7754 34.9079 43.8835C34.9763 43.8132 35.0116 43.7225 35.0065 43.63C35.0015 43.5375 34.9564 43.4503 34.8806 43.3861L34.8669 43.3764Z" fill="white"/>
<path d="M37.3209 41.6681C37.0379 41.7005 36.7618 41.7694 36.5015 41.8725C36.2895 41.9557 36.0903 42.0623 35.9088 42.1899C35.8608 42.2225 35.8215 42.2641 35.7936 42.3116C35.7658 42.3592 35.7502 42.4115 35.7479 42.4649C35.7455 42.5183 35.7565 42.5715 35.7801 42.6208C35.8037 42.6701 35.8392 42.7142 35.8843 42.7501C35.9549 42.8087 36.0468 42.8434 36.1437 42.8483C36.2406 42.8531 36.3364 42.8277 36.4141 42.7765C36.5462 42.6822 36.69 42.6015 36.8429 42.5361C37.0234 42.4646 37.2148 42.4168 37.411 42.3942C37.5099 42.383 37.6012 42.3413 37.6686 42.2767C37.7361 42.212 37.7754 42.1285 37.7798 42.0408V42.0288C37.7789 41.9779 37.7661 41.9277 37.742 41.8814C37.718 41.8351 37.6833 41.7937 37.6402 41.7598C37.5971 41.7259 37.5465 41.7002 37.4915 41.6845C37.4365 41.6687 37.3785 41.6631 37.3209 41.6681Z" fill="white"/>
<path d="M25.8703 53.9579C25.5761 54.0165 25.3065 54.1464 25.0919 54.3328C24.8594 54.5571 24.7115 54.8391 24.6685 55.1403C23.5405 61.2112 22.9942 64.1986 23.251 64.2947C24.0867 64.6071 23.7071 61.079 26.5831 58.3176C28.0607 56.8996 28.9429 55.8998 28.7681 55.0778C28.6179 54.304 26.9245 53.7175 25.8703 53.9579Z" fill="white"/>
<path d="M113.304 173.292L112.692 211.229H112.758C112.758 212.191 115.246 212.957 118.318 212.957C121.391 212.957 123.879 212.183 123.879 211.229H123.945L123.333 173.287L113.304 173.292Z" fill="#FFCE00"/>
<path d="M121.614 173.293C121.494 181.452 122.228 199.554 121.589 206.372C121.452 207.81 120.732 209.156 119.56 210.165C119.25 210.436 118.924 210.692 118.582 210.932C117.613 211.588 115.851 212.001 113.557 212.133C114.532 212.636 116.288 212.972 118.317 212.972C121.39 212.972 123.878 212.198 123.878 211.244H123.944L123.332 173.302L121.614 173.293Z" fill="#F7B703"/>
<path d="M115.308 180.225C115.145 180.223 114.988 180.279 114.871 180.379C114.753 180.479 114.686 180.615 114.683 180.759L114.137 208.763C114.13 208.837 114.14 208.911 114.167 208.982C114.194 209.052 114.238 209.117 114.294 209.172C114.351 209.227 114.42 209.271 114.497 209.302C114.573 209.333 114.657 209.349 114.741 209.35C114.825 209.352 114.909 209.338 114.987 209.309C115.065 209.281 115.136 209.239 115.195 209.186C115.253 209.133 115.299 209.069 115.329 209C115.359 208.93 115.372 208.856 115.369 208.782L115.915 180.778C115.916 180.707 115.902 180.636 115.872 180.57C115.842 180.503 115.798 180.443 115.742 180.391C115.685 180.34 115.618 180.299 115.544 180.27C115.469 180.242 115.39 180.227 115.308 180.225Z" fill="#FFEEA6"/>
<path d="M115.337 176.64C115.145 176.64 114.961 176.707 114.825 176.826C114.69 176.946 114.613 177.108 114.613 177.277V178.719C114.613 178.888 114.69 179.05 114.825 179.169C114.961 179.289 115.145 179.356 115.337 179.356C115.529 179.356 115.713 179.289 115.849 179.169C115.985 179.05 116.061 178.888 116.061 178.719V177.277C116.061 177.108 115.985 176.946 115.849 176.826C115.713 176.707 115.529 176.64 115.337 176.64Z" fill="#FFEEA6"/>
<path d="M118.319 171.506C115.53 171.506 113.269 172.342 113.269 173.376C113.269 174.409 115.53 175.243 118.319 175.243C121.107 175.243 123.369 174.407 123.369 173.376C123.369 172.345 121.107 171.506 118.319 171.506Z" fill="#FFEEA6"/>
<path d="M115.855 172.587H115.89C115.868 172.635 115.856 172.687 115.855 172.739C115.855 173.239 117.005 173.647 118.425 173.647C119.845 173.647 120.995 173.239 120.995 172.739C120.994 172.686 120.981 172.635 120.957 172.587H120.995V154.053L115.855 150.476V172.587Z" fill="#F2F2F2"/>
<path d="M115.855 158.696C117.207 159.393 119.105 159.696 119.466 159.934C120.143 160.383 119.853 168.742 119.889 171.792C119.889 172.467 119.761 172.7 119.583 172.957C119.376 173.246 119.086 173.48 118.742 173.637C120.012 173.582 120.995 173.202 120.995 172.739C120.994 172.686 120.981 172.635 120.957 172.587H120.995V154.053L115.855 150.476V158.696Z" fill="#737373"/>
<path d="M105.464 111.953C103.861 112.767 101.389 114.298 100.362 115.685C95.9022 121.693 98.0026 132.028 104.533 141.99C111.386 152.435 122.671 160.976 130.769 158.928C131.589 158.719 133.577 157.746 134.866 156.765C142.091 151.286 143.514 138.5 135.478 126.267C127.443 114.034 114.013 107.61 105.464 111.953ZM137.518 143.85C137.379 148.373 136.592 153.293 133.542 154.843C132.293 155.477 129.535 155.862 127.937 155.862C121.142 155.862 112.388 149.613 107.046 141.48C100.239 131.105 100.764 118.381 107.453 114.983C108.761 114.333 110.242 114.002 111.743 114.022C118.539 114.022 125.449 119.703 130.791 127.846C134.276 133.162 137.674 138.846 137.518 143.85Z" fill="#737373"/>
<path d="M107.598 140.979C101.434 131.582 100.77 121.151 105.67 116.741C105.312 116.864 104.965 117.01 104.632 117.178C97.9404 120.577 98.0386 132.216 104.848 142.591C110.19 150.734 118.665 156.42 125.46 156.42C126.962 156.44 128.443 156.109 129.751 155.459C130.376 155.138 130.949 154.743 131.453 154.286C130.419 154.635 129.32 154.809 128.214 154.8C121.418 154.805 112.94 149.119 107.598 140.979Z" fill="#737373"/>
<path opacity="0.55" d="M110.05 115.377C108.548 115.355 107.067 115.687 105.759 116.338C99.0674 119.736 99.1657 131.376 105.975 141.751C111.317 149.894 119.792 155.58 126.588 155.58C128.089 155.6 129.57 155.268 130.878 154.619C133.929 153.068 135.685 149.723 135.827 145.2C135.983 140.196 134.148 134.515 130.663 129.203C125.323 121.063 116.845 115.377 110.05 115.377Z" fill="white"/>
<path d="M102.345 114.15C93.7936 118.493 93.3757 131.935 101.411 144.192C109.446 156.449 122.89 162.842 131.439 158.499C139.987 154.156 140.405 140.714 132.37 128.457C124.335 116.2 110.889 109.807 102.345 114.15ZM134.399 146.045C134.257 150.57 132.487 153.913 129.45 155.464C128.142 156.113 126.661 156.445 125.159 156.425C118.364 156.425 109.889 150.739 104.547 142.596C97.7376 132.221 97.6392 120.581 104.331 117.183C105.639 116.533 107.12 116.202 108.622 116.222C115.417 116.222 123.895 121.908 129.234 130.051C132.714 135.36 134.55 141.051 134.394 146.045H134.399Z" fill="white"/>
<path opacity="0.51" d="M106.735 120.142C102.687 126.477 102.982 133.523 104.55 139.383C104.99 140.178 105.46 140.971 105.976 141.757C107.319 143.811 108.889 145.743 110.663 147.525C107.658 141.111 104.555 130.575 110.357 121.497C111.599 119.562 113.164 117.803 115 116.277C113.661 115.811 112.251 115.522 110.815 115.419C109.221 116.825 107.849 118.414 106.735 120.142Z" fill="white"/>
<path d="M116.983 160.718C116.848 160.718 116.719 160.765 116.624 160.849C116.529 160.933 116.475 161.046 116.474 161.165V171.434C116.484 171.547 116.542 171.653 116.636 171.73C116.731 171.808 116.855 171.851 116.984 171.851C117.113 171.851 117.237 171.808 117.332 171.73C117.426 171.653 117.484 171.547 117.493 171.434V161.165C117.493 161.046 117.438 160.932 117.343 160.848C117.247 160.765 117.118 160.718 116.983 160.718Z" fill="white"/>
<path d="M115.335 114.148C117.45 115.874 119.351 117.792 121.007 119.87C121.83 120.905 122.59 121.978 123.283 123.084C125.58 125.185 127.577 127.525 129.228 130.053C132.714 135.362 134.549 141.044 134.393 146.048C134.251 150.573 132.481 153.916 129.444 155.466C128.136 156.116 126.655 156.448 125.153 156.428C124.949 156.428 124.741 156.428 124.531 156.411C123.794 157.505 122.966 158.549 122.053 159.535C125.457 160.187 128.696 159.901 131.433 158.509C139.981 154.166 140.399 140.724 132.364 128.467C127.803 121.505 121.499 116.436 115.335 114.148Z" fill="#F2F2F2"/>
<path d="M104.53 142.591C97.7213 132.216 97.623 120.576 104.315 117.178C105.623 116.528 107.103 116.196 108.605 116.217C113.221 116.217 118.613 118.843 123.272 123.078C122.579 121.972 121.82 120.9 120.997 119.865C119.341 117.787 117.439 115.869 115.324 114.142C110.632 112.4 106.038 112.268 102.329 114.142C93.7774 118.485 93.3595 131.927 101.395 144.184C106.857 152.51 114.819 158.124 122.043 159.518C122.955 158.531 123.783 157.487 124.52 156.393C117.848 156.071 109.72 150.486 104.53 142.591Z" fill="#F2F2F2"/>
<path d="M198.331 49.9252C195.858 46.24 192.445 43.0257 188.672 41.1514C187.376 40.4874 185.965 40.0056 184.493 39.7242C184.034 36.7938 182.735 33.7302 180.868 30.9441C178.513 27.4349 175.26 24.3728 171.667 22.5889C169.922 21.7215 168.259 21.2379 166.737 21.1031C165.795 18.7469 164.59 16.4746 163.14 14.3178C159.729 9.23554 155.02 4.80344 149.816 2.21554C144.612 -0.372356 139.904 -0.613386 136.494 1.08017L127.571 5.52019C127.417 5.5963 127.273 5.68986 127.126 5.77391C124.168 5.01593 121.523 5.20939 119.443 6.24962L110.522 10.6896C107.573 12.1564 105.743 15.3009 105.743 19.7758C105.743 24.2507 107.568 29.2093 110.52 33.6081C113.472 38.0069 117.554 41.8332 122.052 44.0802L179.749 72.7358C183.522 74.6101 186.936 74.7877 189.41 73.5588L198.331 69.1188C200.802 67.8898 202.331 65.256 202.331 61.5073C202.331 57.7587 200.804 53.6104 198.331 49.9252Z" fill="#DDDBD6"/>
<path opacity="0.5" d="M193.401 65.9459C193.401 69.6945 191.872 72.3268 189.401 73.5574L198.322 69.1173C200.793 67.8884 202.323 65.2545 202.323 61.5059L193.401 65.9459Z" fill="#BEBCB7"/>
<path opacity="0.5" d="M198.322 49.9214L189.401 54.3614C191.872 58.0466 193.401 62.1981 193.401 65.9467L202.323 61.5067C202.315 57.758 200.795 53.6066 198.322 49.9214Z" fill="#FEFCF7"/>
<path d="M122.044 11.6579C122.217 11.7436 122.386 11.8355 122.558 11.9275C123.324 9.09859 124.926 7.01178 127.117 5.76698C124.159 5.00901 121.515 5.20247 119.434 6.2427L110.513 10.6827C113.461 9.20959 117.545 9.42049 122.044 11.6579Z" fill="#FEFCF7"/>
<path d="M189.4 54.3608C186.927 50.6755 183.518 47.4597 179.74 45.5854C178.445 44.9203 177.035 44.4385 175.563 44.1582C175.105 41.2278 173.804 38.1626 171.936 35.3781C169.583 31.8689 166.33 28.8068 162.736 27.0213C160.991 26.1539 159.327 25.6719 157.807 25.5355C156.868 23.1798 155.665 20.908 154.217 18.7518C150.808 13.6774 146.099 9.23742 140.895 6.6511C135.691 4.06479 130.981 3.82058 127.572 5.51414C125.146 6.71929 123.386 8.90759 122.566 11.9284C122.395 11.8364 122.225 11.7444 122.052 11.6588C117.548 9.42136 113.47 9.21046 110.522 10.6757C107.573 12.1409 105.743 15.2869 105.743 19.7619C105.743 24.2368 107.568 29.1953 110.52 33.5941C113.472 37.9929 117.545 41.8304 122.043 44.0773L179.74 72.7329C183.512 74.6073 186.927 74.7849 189.4 73.5559C191.873 72.327 193.401 69.6947 193.401 65.9445C193.401 62.1942 191.872 58.046 189.4 54.3608Z" fill="#DDDBD6"/>
<path d="M188.664 41.1485C187.368 40.4844 185.957 40.0026 184.484 39.7213L175.563 44.1613C177.035 44.4416 178.446 44.9235 179.741 45.5885C183.513 47.4628 186.928 50.6787 189.401 54.3639L198.322 49.9239C195.849 46.237 192.436 43.0228 188.664 41.1485Z" fill="#FEFCF7"/>
<path opacity="0.5" d="M180.859 30.9408L171.936 35.3808C173.804 38.1654 175.105 41.2306 175.562 44.161L184.483 39.721C184.025 36.7905 182.725 33.7269 180.859 30.9408Z" fill="#FEFCF7"/>
<path d="M149.808 2.21396C144.605 -0.370765 139.895 -0.614967 136.486 1.07859L127.563 5.51861C130.972 3.82506 135.683 4.06926 140.887 6.65558C146.091 9.24189 150.799 13.6756 154.208 18.7562L163.131 14.3162C159.72 9.23238 155.012 4.79711 149.808 2.21396Z" fill="#FEFCF7"/>
<path opacity="0.5" d="M163.131 14.3143L154.208 18.7544C155.66 20.9108 156.865 23.1831 157.807 25.5397L166.728 21.0996C165.786 18.7434 164.581 16.4711 163.131 14.3143Z" fill="#FEFCF7"/>
<path d="M171.657 22.586C169.912 21.7186 168.25 21.2349 166.728 21.1002L157.807 25.5402C159.327 25.6766 160.991 26.1586 162.736 27.026C166.33 28.8115 169.582 31.8736 171.936 35.3828L180.859 30.9427C178.503 27.4272 175.251 24.3699 171.657 22.586Z" fill="#FEFCF7"/>
<defs>
<linearGradient id="paint0_linear_4728_23935" x1="49039" y1="39963.3" x2="61093.1" y2="39963.3" gradientUnits="userSpaceOnUse">
<stop stop-color="#03004A"/>
<stop offset="0.02" stop-color="#03044D"/>
<stop offset="0.24" stop-color="#082E72"/>
<stop offset="0.45" stop-color="#0B508F"/>
<stop offset="0.65" stop-color="#0D68A4"/>
<stop offset="0.84" stop-color="#0F76B1"/>
<stop offset="1" stop-color="#0F7BB5"/>
</linearGradient>
<linearGradient id="paint1_linear_4728_23935" x1="45107.9" y1="43249.4" x2="162789" y2="124239" gradientUnits="userSpaceOnUse">
<stop stop-color="#03004A"/>
<stop offset="0.02" stop-color="#03044D"/>
<stop offset="0.24" stop-color="#082E72"/>
<stop offset="0.45" stop-color="#0B508F"/>
<stop offset="0.65" stop-color="#0D68A4"/>
<stop offset="0.84" stop-color="#0F76B1"/>
<stop offset="1" stop-color="#0F7BB5"/>
</linearGradient>
</defs>
</svg>
