<?xml version="1.0" encoding="utf-8"?>
<!-- Generator: Adobe Illustrator 16.0.4, SVG Export Plug-In . SVG Version: 6.00 Build 0)  -->
<!DOCTYPE svg PUBLIC "-//W3C//DTD SVG 1.1//EN" "http://www.w3.org/Graphics/SVG/1.1/DTD/svg11.dtd">
<svg version="1.1" id="Layer_2" xmlns="http://www.w3.org/2000/svg" xmlns:xlink="http://www.w3.org/1999/xlink" x="0px" y="0px"
	 width="113.386px" height="130.394px" viewBox="0 0 113.386 130.394" enable-background="new 0 0 113.386 130.394"
	 xml:space="preserve">
<path fill="#357A00" d="M101.678,102.697c-12.125,12.563-44.189,27-44.189,27s-31.62-12.888-45.241-27S1.726,20.688,1.726,20.688
	L57.489,4.697l54.712,15.992C112.201,20.688,113.803,90.134,101.678,102.697z"/>
<linearGradient id="SVGID_1_" gradientUnits="userSpaceOnUse" x1="90.3545" y1="9.3516" x2="-55.891" y2="192.3941">
	<stop  offset="0" style="stop-color:#83BF15"/>
	<stop  offset="1" style="stop-color:#61AA0B"/>
</linearGradient>
<path fill="url(#SVGID_1_)" d="M101.678,98.697c-12.125,12.563-44.189,27-44.189,27s-31.62-12.888-45.241-27
	S1.726,16.688,1.726,16.688L57.489,0.697l54.712,15.992C112.201,16.688,113.803,86.134,101.678,98.697z"/>
<path fill="#FFFFFF" d="M95.423,54.132H80.095c-1.879,0-3.401,1.541-3.401,3.441v31.536c0,1.9,1.522,3.44,3.401,3.44h15.328
	c1.879,0,3.401-1.54,3.401-3.44V57.574C98.824,55.673,97.302,54.132,95.423,54.132z M87.759,90.979c-0.935,0-1.693-0.767-1.693-1.71
	c0-0.945,0.759-1.712,1.693-1.712s1.69,0.767,1.69,1.712C89.449,90.21,88.694,90.979,87.759,90.979z M96.06,85.532H79.457V57.21
	H96.06V85.532z"/>
<g>
	<path fill="#FFFFFF" d="M67.144,80.284h-8.468v-6.072h16.235V69.95h-55.16V33.401H83.29V52.12h3.947V31.127
		c0-1.147-0.9-2.079-2.01-2.079H17.817c-1.109,0-2.01,0.931-2.01,2.079v41.007c0,1.148,0.9,2.078,2.01,2.078h26.548v6.072h-8.468
		c-0.626,0-1.139,1.344-1.139,1.999c0,0.648,0.513,2.101,1.139,2.101h31.247c0.627,0,1.14-1.452,1.14-2.101
		C68.283,81.628,67.771,80.284,67.144,80.284z"/>
</g>
</svg>
