<?xml version="1.0" encoding="utf-8"?>
<!-- Generator: Adobe Illustrator 16.0.4, SVG Export Plug-In . SVG Version: 6.00 Build 0)  -->
<!DOCTYPE svg PUBLIC "-//W3C//DTD SVG 1.1//EN" "http://www.w3.org/Graphics/SVG/1.1/DTD/svg11.dtd">
<svg version="1.1" id="Layer_1" xmlns="http://www.w3.org/2000/svg" xmlns:xlink="http://www.w3.org/1999/xlink" x="0px" y="0px"
	 width="113.386px" height="130.394px" viewBox="0 0 113.386 130.394" enable-background="new 0 0 113.386 130.394"
	 xml:space="preserve">
<path fill="#357A00" d="M101.365,102.697c-12.125,12.563-44.189,27-44.189,27s-31.62-12.888-45.241-27S1.414,20.688,1.414,20.688
	L57.176,4.697l54.712,15.992C111.889,20.688,113.49,90.134,101.365,102.697z"/>
<linearGradient id="SVGID_1_" gradientUnits="userSpaceOnUse" x1="90.041" y1="9.3516" x2="-56.2042" y2="192.3938">
	<stop  offset="0" style="stop-color:#83BF15"/>
	<stop  offset="1" style="stop-color:#61AA0B"/>
</linearGradient>
<path fill="url(#SVGID_1_)" d="M101.365,98.697c-12.125,12.563-44.189,27-44.189,27s-31.62-12.888-45.241-27
	S1.414,16.688,1.414,16.688L57.176,0.697l54.712,15.992C111.889,16.688,113.49,86.134,101.365,98.697z"/>
<path fill="#FFFFFF" d="M68.762,30.791H44.307c-2.999,0-5.427,2.393-5.427,5.345v48.979c0,2.95,2.428,5.342,5.427,5.342h24.455
	c2.998,0,5.426-2.392,5.426-5.342V36.136C74.188,33.183,71.76,30.791,68.762,30.791z M56.534,87.853
	c-1.157,0-2.097-0.924-2.097-2.062c0-1.14,0.939-2.062,2.097-2.062s2.094,0.923,2.094,2.062
	C58.628,86.927,57.691,87.853,56.534,87.853z M50.342,34.487c-0.513,0-0.93-0.41-0.93-0.915c0-0.505,0.417-0.915,0.93-0.915
	c0.04,0,12.458-0.004,12.497,0c0.459,0.057,0.813,0.448,0.813,0.915c0,0.475-0.368,0.87-0.839,0.915
	C62.783,34.49,50.374,34.487,50.342,34.487z M70.795,81.22H42.272V36.912h28.523V81.22z"/>
</svg>
